C:\GBW_MyPrograms\KinderuniversiteitApp\Resultaten\Ellis\Smurf\Smurf_v4.mot
version=1
nRows=11
nColumns=29
inDegrees=yes
endheader
                time	         pelvis_tilt	           pelvis_tx	           pelvis_ty	       hip_flexion_l	       hip_flexion_r	        knee_angle_l	        knee_angle_r	       ankle_angle_l	       ankle_angle_r	    lumbar_extension	hamstrings_r/activation	bifemsh_r/activation	glut_max_r/activation	iliopsoas_r/activation	rect_fem_r/activation	  vasti_r/activation	gastroc_r/activation	 soleus_r/activation	tib_ant_r/activation	hamstrings_l/activation	bifemsh_l/activation	glut_max_l/activation	iliopsoas_l/activation	rect_fem_l/activation	  vasti_l/activation	gastroc_l/activation	 soleus_l/activation	tib_ant_l/activation	
          0.00000000	          1.12224496	          0.00000000	          0.90056791	        -19.29241573	         24.06877326	        -11.52630533	         -8.91804835	          9.88605874	         -0.46520300	         -7.24975211	          0.10000000	          0.10000000	          0.10000000	          0.10000000	          0.10000000	          0.10000000	          0.10000000	          0.10000000	          0.10000000	          0.10000000	          0.10000000	          0.10000000	          0.10000000	          0.10000000	          0.10000000	          0.10000000	          0.10000000	          0.10000000	
          0.01400000	          1.06873103	          0.01568307	          0.89978857	        -19.20668577	         24.11928381	        -13.41799843	        -10.36965359	          8.40106904	         -1.35939275	         -6.95444924	          0.10000000	          0.10000000	          0.10000000	          0.10000000	          0.10000000	          0.10000000	          0.10000000	          0.10000000	          0.10000000	          0.10000000	          0.10000000	          0.10000000	          0.10000000	          0.10000000	          0.10000000	          0.10000000	          0.10000000	          0.10000000	
          0.02800000	          1.00324248	          0.03131913	          0.89914924	        -18.99231551	         24.15611739	        -15.47385136	        -11.84523663	          6.72314242	         -2.20528936	         -6.65113257	          0.10000000	          0.10000000	          0.10000000	          0.10000000	          0.10000000	          0.10000000	          0.10000000	          0.10000000	          0.10000000	          0.10000000	          0.10000000	          0.10000000	          0.10000000	          0.10000000	          0.10000000	          0.10000000	          0.10000000	          0.10000000	
          0.04200000	          0.92460366	          0.04684391	          0.89868127	        -18.61851315	         24.17001833	        -17.72249507	        -13.32578444	          4.84275538	         -2.96582743	         -6.34303299	          0.10000000	          0.10000000	          0.10000000	          0.10000000	          0.10000000	          0.10000000	          0.10000000	          0.10000000	          0.10000000	          0.10000000	          0.10000000	          0.10000000	          0.10000000	          0.10000000	          0.10000000	          0.10000000	          0.10000000	          0.10000000	
          0.05600000	          0.83294299	          0.06221280	          0.89840549	        -18.06134214	         24.14968317	        -20.18326598	        -14.78513786	          2.77523769	         -3.60046029	         -6.03515902	          0.10000000	          0.10000000	          0.10000000	          0.10000000	          0.10000000	          0.10000000	          0.10000000	          0.10000000	          0.10000000	          0.10000000	          0.10000000	          0.10000000	          0.10000000	          0.10000000	          0.10000000	          0.10000000	          0.10000000	          0.10000000	
          0.07000000	          0.72959541	          0.07739369	          0.89833276	        -17.30439577	         24.08228405	        -22.86386961	        -16.19213340	          0.56176067	         -4.07053863	         -5.73383207	          0.10000000	          0.10000000	          0.10000000	          0.10000000	          0.10000000	          0.10000000	          0.10000000	          0.10000000	          0.10000000	          0.10000000	          0.10000000	          0.10000000	          0.10000000	          0.10000000	          0.10000000	          0.10000000	          0.10000000	          0.10000000	
          0.08400000	          0.61682399	          0.09236217	          0.89846532	        -16.33885989	         23.95443802	        -25.75911542	        -17.51351195	         -1.73297607	         -4.34464457	         -5.44597943	          0.10000000	          0.10000000	          0.10000000	          0.10000000	          0.10000000	          0.10000000	          0.10000000	          0.10000000	          0.10000000	          0.10000000	          0.10000000	          0.10000000	          0.10000000	          0.10000000	          0.10000000	          0.10000000	          0.10000000	          0.10000000	
          0.09800000	          0.49744248	          0.10709872	          0.89879863	        -15.16317226	         23.75344619	        -28.85055408	        -18.71704103	         -4.02608060	         -4.40279386	         -5.17834946	          0.10000000	          0.10000000	          0.10000000	          0.10000000	          0.10000000	          0.10000000	          0.10000000	          0.10000000	          0.10000000	          0.10000000	          0.10000000	          0.10000000	          0.10000000	          0.10000000	          0.10000000	          0.10000000	          0.10000000	          0.10000000	
          0.11200000	          0.37443052	          0.12158753	          0.89932335	        -13.78246058	         23.46852539	        -32.10689441	        -19.77435106	         -6.22421371	         -4.23886988	         -4.93679854	          0.10000000	          0.10000000	          0.10000000	          0.10000000	          0.10000000	          0.10000000	          0.10000000	          0.10000000	          0.10000000	          0.10000000	          0.10000000	          0.10000000	          0.10000000	          0.10000000	          0.10000000	          0.10000000	          0.10000000	          0.10000000	
          0.12600000	          0.25061634	          0.13581657	          0.90002735	        -12.20789377	         23.09176749	        -35.48510983	        -20.66311031	         -8.23275486	         -3.86107790	         -4.72575873	          0.10000000	          0.10000000	          0.10000000	          0.10000000	          0.10000000	          0.10000000	          0.10000000	          0.10000000	          0.10000000	          0.10000000	          0.10000000	          0.10000000	          0.10000000	          0.10000000	          0.10000000	          0.10000000	          0.10000000	          0.10000000	
          0.14000000	          0.12846637	          0.14977848	          0.90089733	        -10.45601035	         22.61866452	        -38.93217271	        -21.36834349	         -9.96512842	         -3.29056408	         -4.54794113	          0.10000000	          0.10000000	          0.10000000	          0.10000000	          0.10000000	          0.10000000	          0.10000000	          0.10000000	          0.10000000	          0.10000000	          0.10000000	          0.10000000	          0.10000000	          0.10000000	          0.10000000	          0.10000000	          0.10000000	          0.10000000	
